<svg xmlns="http://www.w3.org/2000/svg" xmlns:xlink="http://www.w3.org/1999/xlink" version="1.1" x="0px" y="0px" viewBox="0 0 100 125" enable-background="new 0 0 100 100" xml:space="preserve"><path d="M13.989,65.462c2.625,0,5.169-0.776,7.357-2.245c5.483-3.683,7.309-10.781,4.579-16.585l4.103-2.755  c0.022-0.015,0.039-0.034,0.06-0.05c0.03-0.022,0.057-0.047,0.085-0.071c0.063-0.052,0.128-0.101,0.184-0.159  c0.019-0.02,0.034-0.043,0.052-0.064c0.05-0.056,0.098-0.113,0.141-0.174c0.008-0.011,0.018-0.02,0.025-0.031  c0.032-0.048,0.055-0.1,0.083-0.15c0.011-0.021,0.029-0.036,0.04-0.058c0.012-0.024,0.017-0.049,0.028-0.073  c0.03-0.065,0.054-0.13,0.076-0.197c0.014-0.042,0.033-0.082,0.044-0.123c0-0.001,0.001-0.002,0.001-0.003l5.051-19.292l2.282,0.917  c-0.036,0.155-0.084,0.307-0.115,0.464c-0.68,3.464,0.029,6.985,1.997,9.916c2.459,3.662,6.565,5.849,10.982,5.849  c2.625,0,5.169-0.776,7.356-2.245c6.05-4.063,7.666-12.291,3.603-18.34c-2.459-3.662-6.564-5.849-10.981-5.849  c-2.625,0-5.17,0.777-7.357,2.246c-1.663,1.117-3.009,2.571-3.999,4.247l-7.45-2.995l0.358-1.733c0-0.003,0-0.005,0.001-0.008  c0.026-0.129,0.041-0.261,0.041-0.394c0-0.018-0.005-0.035-0.005-0.053c-0.002-0.112-0.011-0.225-0.033-0.336  c-0.014-0.071-0.04-0.137-0.062-0.206c-0.021-0.066-0.039-0.133-0.066-0.198c-0.048-0.11-0.103-0.217-0.169-0.316  c-0.002-0.003-0.003-0.006-0.005-0.009c-0.025-0.038-0.058-0.067-0.084-0.102c-0.051-0.066-0.101-0.133-0.16-0.192  c-0.047-0.048-0.101-0.086-0.152-0.129c-0.049-0.04-0.095-0.083-0.148-0.119c-0.062-0.041-0.127-0.072-0.192-0.106  c-0.051-0.027-0.098-0.057-0.151-0.08c-0.085-0.035-0.173-0.059-0.262-0.082c-0.036-0.01-0.069-0.025-0.106-0.033  c-0.003,0-0.006,0-0.009-0.001c-0.097-0.02-0.195-0.026-0.293-0.031c-0.441-0.024-0.866,0.094-1.216,0.329  c-0.001,0.001-0.002,0.001-0.002,0.001l-4.54,3.049c-0.917,0.616-1.161,1.858-0.545,2.775c0.386,0.575,1.018,0.885,1.662,0.885  c0.383,0,0.771-0.11,1.113-0.34l0.875-0.588c0.002,0.007,0.006,0.013,0.009,0.02c0.027,0.063,0.063,0.122,0.096,0.183  c0.028,0.051,0.051,0.105,0.083,0.153c0.04,0.061,0.09,0.114,0.136,0.169c0.036,0.043,0.067,0.089,0.106,0.129  c0.046,0.046,0.1,0.084,0.15,0.126c0.05,0.042,0.097,0.087,0.152,0.124c0.045,0.031,0.098,0.053,0.146,0.081  c0.068,0.038,0.134,0.078,0.208,0.109c0.007,0.003,0.013,0.007,0.02,0.01l1.055,0.424L13.671,32.271l-1.146-0.579l2.923-1.963  c0.917-0.616,1.161-1.858,0.545-2.775c-0.615-0.917-1.857-1.162-2.775-0.545L7.46,30.276c-0.029,0.02-0.052,0.045-0.079,0.065  c-0.058,0.043-0.112,0.088-0.165,0.137c-0.048,0.044-0.092,0.091-0.134,0.139s-0.083,0.097-0.121,0.149  c-0.042,0.059-0.08,0.119-0.115,0.181c-0.018,0.03-0.04,0.056-0.056,0.087c-0.012,0.024-0.017,0.049-0.028,0.073  c-0.029,0.065-0.053,0.13-0.076,0.198c-0.02,0.06-0.04,0.119-0.054,0.18c-0.015,0.063-0.023,0.125-0.032,0.189  c-0.009,0.065-0.017,0.13-0.02,0.195c-0.002,0.064,0.002,0.127,0.006,0.191s0.008,0.127,0.018,0.19  c0.01,0.064,0.026,0.126,0.042,0.19c0.017,0.063,0.033,0.125,0.056,0.186c0.021,0.058,0.047,0.113,0.074,0.169  c0.031,0.065,0.064,0.128,0.102,0.19c0.013,0.022,0.021,0.045,0.036,0.067c0.015,0.022,0.036,0.037,0.051,0.059  c0.065,0.09,0.139,0.174,0.22,0.253c0.033,0.032,0.064,0.066,0.099,0.096c0.092,0.078,0.194,0.146,0.302,0.208  c0.025,0.014,0.047,0.033,0.073,0.046c0.004,0.002,0.007,0.006,0.012,0.008l5.211,2.634c0.002,0.001,0.005,0.002,0.008,0.004  l12.07,6.101l-1.268,0.852c-2.483-2.703-5.988-4.283-9.728-4.283c-2.626,0-5.17,0.776-7.357,2.246  c-6.049,4.063-7.665,12.29-3.602,18.339C5.466,63.275,9.572,65.462,13.989,65.462z M45.894,19.709  c1.526-1.025,3.299-1.566,5.127-1.566c3.082,0,5.945,1.525,7.661,4.079c1.372,2.043,1.867,4.499,1.393,6.915  s-1.861,4.501-3.905,5.875c-1.525,1.024-3.298,1.565-5.126,1.565c-3.082,0-5.946-1.525-7.662-4.079  c-1.319-1.964-1.817-4.31-1.434-6.634l8.338,3.352c0.245,0.099,0.497,0.145,0.745,0.145c0.793,0,1.543-0.474,1.856-1.254  c0.412-1.025-0.085-2.19-1.109-2.602l-8.348-3.356C44.083,21.2,44.91,20.37,45.894,19.709z M31.285,25.26l-3.68,14.055l-9.841-4.974  L31.285,25.26z M8.839,44.595c1.525-1.024,3.298-1.566,5.127-1.566c2.399,0,4.659,0.934,6.355,2.548l-7.459,5.009  c-0.917,0.615-1.161,1.858-0.545,2.775c0.386,0.574,1.018,0.885,1.662,0.885c0.383,0,0.771-0.109,1.113-0.34l7.464-5.012  c1.537,3.933,0.207,8.553-3.441,11.002c-1.525,1.024-3.298,1.565-5.126,1.565c-3.082,0-5.946-1.524-7.662-4.079  C3.494,53.165,4.621,47.428,8.839,44.595z"/><path d="M98.518,35.87l-12.5-26.23c-0.02-0.042-0.048-0.076-0.069-0.115c-0.035-0.063-0.07-0.125-0.111-0.184  c-0.038-0.053-0.081-0.101-0.123-0.149c-0.043-0.049-0.085-0.098-0.133-0.143c-0.049-0.046-0.102-0.086-0.155-0.127  c-0.05-0.039-0.099-0.077-0.152-0.111c-0.061-0.038-0.125-0.069-0.189-0.1c-0.041-0.02-0.077-0.046-0.12-0.063  c-0.015-0.006-0.029-0.007-0.044-0.013c-0.066-0.025-0.136-0.042-0.205-0.06c-0.059-0.016-0.117-0.034-0.176-0.044  c-0.065-0.011-0.132-0.012-0.197-0.017c-0.063-0.004-0.127-0.012-0.189-0.01c-0.065,0.002-0.13,0.014-0.195,0.022  c-0.063,0.008-0.126,0.013-0.188,0.027c-0.06,0.014-0.118,0.037-0.178,0.056c-0.066,0.022-0.133,0.042-0.197,0.071  c-0.014,0.006-0.028,0.008-0.042,0.015c-0.042,0.02-0.077,0.048-0.117,0.071C83.173,8.8,83.11,8.834,83.053,8.876  c-0.053,0.037-0.1,0.079-0.146,0.12c-0.051,0.044-0.102,0.087-0.147,0.136c-0.045,0.048-0.084,0.1-0.124,0.151  c-0.039,0.051-0.079,0.101-0.113,0.157c-0.037,0.06-0.067,0.122-0.098,0.185c-0.021,0.042-0.048,0.079-0.065,0.123l-7.924,19.536  L46.318,46.864c-0.01,0.006-0.017,0.015-0.027,0.021c-0.067,0.044-0.128,0.096-0.19,0.147c-0.04,0.034-0.083,0.064-0.121,0.101  c-0.048,0.046-0.088,0.101-0.131,0.152c-0.042,0.05-0.086,0.098-0.122,0.151c-0.031,0.045-0.055,0.096-0.082,0.145  c-0.038,0.067-0.077,0.134-0.107,0.205c-0.004,0.011-0.012,0.021-0.017,0.032l-8.513,21.314l-8.677-5.796  c-0.004-0.003-0.01-0.005-0.015-0.008c-0.075-0.049-0.154-0.086-0.233-0.124c-0.041-0.019-0.079-0.044-0.12-0.061  c-0.08-0.032-0.162-0.052-0.245-0.072c-0.043-0.012-0.086-0.029-0.13-0.037c-0.086-0.017-0.174-0.02-0.261-0.024  c-0.041-0.002-0.081-0.01-0.122-0.01c-0.1,0.001-0.198,0.015-0.297,0.03c-0.027,0.004-0.056,0.003-0.083,0.009  c-0.09,0.018-0.178,0.049-0.266,0.079c-0.034,0.013-0.07,0.019-0.103,0.032c-0.063,0.026-0.121,0.063-0.182,0.096  c-0.056,0.029-0.113,0.055-0.166,0.09c-0.041,0.026-0.076,0.063-0.115,0.093c-0.066,0.052-0.134,0.102-0.195,0.163  c-0.003,0.004-0.008,0.006-0.012,0.01l-23.932,24.5c-0.772,0.79-0.757,2.057,0.033,2.828C2.28,91.311,2.784,91.5,3.288,91.5  c0.52,0,1.039-0.201,1.431-0.603L27.49,67.586l9.349,6.244c0.001,0.001,0.002,0.001,0.003,0.002c0.113,0.074,0.235,0.14,0.366,0.192  c0.038,0.015,0.077,0.021,0.116,0.034c0.04,0.013,0.08,0.024,0.12,0.035c0.168,0.044,0.337,0.074,0.505,0.074  c0.014,0,0.026-0.006,0.041-0.006c0.167-0.004,0.331-0.029,0.491-0.073c0.058-0.017,0.112-0.042,0.168-0.063  c0.114-0.043,0.224-0.092,0.329-0.155c0.058-0.034,0.11-0.073,0.165-0.113c0.093-0.069,0.178-0.147,0.258-0.233  c0.049-0.053,0.096-0.104,0.14-0.162c0.022-0.029,0.052-0.052,0.073-0.083c0.079-0.117,0.142-0.24,0.193-0.366  c0-0.001,0.001-0.002,0.001-0.003l9.186-23l28.112-17.578c0.01-0.006,0.017-0.014,0.025-0.02c0.022-0.015,0.042-0.034,0.064-0.05  c0.127-0.089,0.238-0.191,0.338-0.304c0.027-0.031,0.055-0.061,0.081-0.094c0.11-0.142,0.203-0.293,0.271-0.456  c0.003-0.008,0.01-0.013,0.013-0.021l6.461-15.929l10.547,22.132c0.343,0.72,1.06,1.14,1.807,1.14c0.289,0,0.582-0.063,0.859-0.195  C98.569,38.061,98.992,36.867,98.518,35.87z"/></svg>