<?xml version="1.0" standalone="no"?>
<!DOCTYPE svg PUBLIC "-//W3C//DTD SVG 20010904//EN"
 "http://www.w3.org/TR/2001/REC-SVG-20010904/DTD/svg10.dtd">
<svg version="1.0" xmlns="http://www.w3.org/2000/svg"
 width="225.000000pt" height="225.000000pt" viewBox="0 0 225.000000 225.000000"
 preserveAspectRatio="xMidYMid meet">

<g transform="translate(0.000000,225.000000) scale(0.100000,-0.100000)"
fill="#000000" stroke="none">
<path d="M803 1893 c15 -4 17 -18 17 -103 0 -94 -1 -99 -22 -103 -20 -4 -19
-4 5 -6 l27 -1 0 110 c0 108 0 110 -22 109 -17 -1 -19 -2 -5 -6z"/>
<path d="M748 1883 c6 -2 18 -2 25 0 6 3 1 5 -13 5 -14 0 -19 -2 -12 -5z"/>
<path d="M685 1873 c-11 -3 -24 -9 -29 -14 -5 -4 8 -3 30 2 58 16 57 26 -1 12z"/>
<path d="M586 1826 c-44 -28 -132 -111 -148 -141 -6 -11 11 4 38 34 27 30 76
72 108 93 64 41 66 53 2 14z"/>
<path d="M704 1654 c-18 -14 -18 -14 6 -3 31 14 36 19 24 19 -6 0 -19 -7 -30
-16z"/>
<path d="M395 1608 c-14 -29 -25 -60 -24 -68 0 -8 6 1 14 21 7 20 20 50 29 67
9 18 14 32 11 32 -3 0 -17 -24 -30 -52z"/>
<path d="M626 1589 c-25 -28 -46 -56 -46 -62 0 -6 7 0 16 13 10 14 33 42 53
63 19 20 32 37 29 37 -3 0 -27 -23 -52 -51z"/>
<path d="M818 1533 c6 -2 18 -2 25 0 6 3 1 5 -13 5 -14 0 -19 -2 -12 -5z"/>
<path d="M878 1533 c6 -2 18 -2 25 0 6 3 1 5 -13 5 -14 0 -19 -2 -12 -5z"/>
<path d="M739 1491 c-25 -24 -39 -47 -38 -62 1 -22 1 -22 9 4 11 36 27 55 65
79 17 10 24 18 16 18 -7 0 -31 -17 -52 -39z"/>
<path d="M946 1511 c18 -11 34 -25 37 -33 3 -8 6 -9 6 -1 1 13 -46 53 -63 53
-6 0 3 -9 20 -19z"/>
<path d="M361 1504 c0 -11 3 -14 6 -6 3 7 2 16 -1 19 -3 4 -6 -2 -5 -13z"/>
<path d="M566 1495 c-3 -9 -6 -22 -5 -28 0 -7 5 -1 10 12 5 13 8 26 5 28 -2 2
-6 -3 -10 -12z"/>
<path d="M353 1400 c0 -47 2 -66 4 -42 2 23 2 61 0 85 -2 23 -4 4 -4 -43z"/>
<path d="M992 1430 c0 -19 2 -27 5 -17 2 9 2 25 0 35 -3 9 -5 1 -5 -18z"/>
<path d="M553 1400 c0 -30 2 -43 4 -27 2 15 2 39 0 55 -2 15 -4 2 -4 -28z"/>
<path d="M1360 1403 c-109 -18 -196 -68 -296 -169 -52 -52 -94 -86 -118 -94
-20 -6 -35 -14 -33 -17 9 -8 74 25 109 56 20 17 39 31 43 31 4 0 33 -21 64
-48 95 -81 84 -77 136 -38 46 36 127 66 175 66 54 0 127 -30 174 -71 113 -99
131 -251 45 -375 -35 -51 -114 -101 -176 -110 l-43 -6 0 -109 0 -109 34 0 c19
0 71 11 115 25 140 44 249 145 308 286 25 58 28 76 28 189 l0 125 -43 88 c-30
61 -59 104 -98 142 -110 108 -278 163 -424 138z"/>
<path d="M958 1344 c-15 -24 -25 -44 -23 -44 7 0 58 80 54 84 -2 2 -16 -16
-31 -40z"/>
<path d="M700 1361 c0 -11 4 -22 9 -25 4 -3 6 6 3 19 -5 30 -12 33 -12 6z"/>
<path d="M737 1299 c12 -12 24 -21 27 -18 2 2 -8 13 -22 23 l-27 19 22 -24z"/>
<path d="M361 1294 c0 -11 3 -14 6 -6 3 7 2 16 -1 19 -3 4 -6 -2 -5 -13z"/>
<path d="M570 1305 c0 -5 5 -17 10 -25 5 -8 10 -10 10 -5 0 6 -5 17 -10 25 -5
8 -10 11 -10 5z"/>
<path d="M885 1285 c-16 -8 -23 -14 -14 -15 8 0 24 7 35 15 23 18 18 18 -21 0z"/>
<path d="M370 1259 c0 -33 64 -143 114 -193 28 -29 35 -34 15 -12 -52 60 -80
102 -105 165 -13 31 -24 49 -24 40z"/>
<path d="M818 1263 c6 -2 18 -2 25 0 6 3 1 5 -13 5 -14 0 -19 -2 -12 -5z"/>
<path d="M598 1244 c16 -31 89 -94 128 -110 55 -23 53 -15 -3 12 -29 14 -71
46 -94 72 -23 26 -37 38 -31 26z"/>
<path d="M808 1113 c17 -2 47 -2 65 0 17 2 3 4 -33 4 -36 0 -50 -2 -32 -4z"/>
<path d="M1179 1054 c-13 -15 -46 -42 -74 -60 -27 -19 -46 -34 -42 -34 14 0
90 56 121 89 17 17 27 31 25 31 -3 0 -16 -12 -30 -26z"/>
<path d="M1380 1028 c-110 -56 -132 -191 -39 -239 134 -68 289 65 223 192 -16
31 -81 68 -119 69 -12 0 -41 -10 -65 -22z"/>
<path d="M575 986 c17 -14 34 -26 39 -26 11 0 11 0 -34 29 l-35 23 30 -26z"/>
<path d="M675 935 c17 -8 37 -14 45 -14 8 0 -1 7 -20 14 -46 18 -64 17 -25 0z"/>
<path d="M980 935 c-19 -7 -28 -14 -20 -14 8 0 29 6 45 14 39 17 21 18 -25 0z"/>
<path d="M763 913 c9 -2 23 -2 30 0 6 3 -1 5 -18 5 -16 0 -22 -2 -12 -5z"/>
<path d="M893 913 c9 -2 23 -2 30 0 6 3 -1 5 -18 5 -16 0 -22 -2 -12 -5z"/>
<path d="M823 903 c9 -2 25 -2 35 0 9 3 1 5 -18 5 -19 0 -27 -2 -17 -5z"/>
</g>
</svg>
