<svg xmlns="http://www.w3.org/2000/svg" xmlns:xlink="http://www.w3.org/1999/xlink" version="1.1" x="0px" y="0px" viewBox="0 0 101 126.25" style="enable-background:new 0 0 101 101;" xml:space="preserve"><g><path d="M77.188,21.446c-0.447-0.446-1.309-0.439-1.951-0.354c-1.95,0.256-4.505,1.529-5.812,3.795   c-2.114,3.661-4.244,9.373-4.746,10.749c-0.644,0.071-2.187,0.25-3.956,0.536c0.139-1.128-1.022-2.012-1.764-2.578   c-0.23-0.175-0.441-0.333-0.584-0.476c-0.244-0.244-0.267-0.847-0.288-1.43c-0.022-0.626-0.047-1.274-0.309-1.835   c-0.098-0.209-0.18-0.489-0.268-0.786c-0.181-0.613-0.399-1.351-0.886-1.998c1.388-0.594,2.379-1.817,2.848-3.553   c0.721-2.671,0.006-6.043-1.53-7.216c-0.149-0.114-0.35-0.135-0.517-0.055c-0.169,0.08-0.28,0.247-0.287,0.434   c-0.131,3.505-1.697,5.261-2.707,6.035c-1.082-1.196-2.541-1.983-4.383-1.538c-1.84,0.444-2.779,1.81-3.198,3.368   c-1.251-0.226-3.445-1.071-5.164-4.135c-0.092-0.164-0.271-0.273-0.453-0.255c-0.187,0.006-0.354,0.116-0.435,0.284   c-0.832,1.744,0.069,5.071,1.929,7.12c0.833,0.917,1.775,1.505,2.773,1.748c-0.42,1.082-0.179,2.663,0.322,3.627   c0.286,0.552,0.18,0.782-0.034,1.24c-0.177,0.378-0.396,0.85-0.396,1.555c0,0.474-0.14,0.682-0.333,0.971   c-0.252,0.377-0.557,0.833-0.548,1.794c-1.078,0.804-1.911,1.982-2.547,3.415c-1.433,1.903-2.237,4.679-2.458,7.067   c-1.085-1.004-2.795-1.915-4.579-2.865c-0.543-0.289-1.084-0.578-1.603-0.867c0.002-0.05,0.003-0.099,0.003-0.147   c0-1.888-0.684-2.692-1.332-3.03V25.965h0.268c0.039,0,0.078-0.004,0.116-0.014l4.092-0.978c0.226-0.054,0.385-0.255,0.384-0.487   s-0.16-0.433-0.386-0.486l-4.255-0.998c-0.037-0.009-0.076-0.013-0.114-0.013l-0.084,0c0.026-0.028,0.048-0.06,0.067-0.095   l0.367-0.672c0.046-0.083,0.066-0.177,0.061-0.271L31.595,7.477c-0.017-0.263-0.235-0.468-0.499-0.468s-0.482,0.205-0.499,0.468   l-0.916,14.475c-0.006,0.095,0.015,0.188,0.061,0.271l0.367,0.672c0.019,0.035,0.043,0.067,0.069,0.095l-0.65,0   c-0.008,0-0.737-0.097-1.644-1.556c-0.993-1.599-0.785-3.776-0.783-3.797c0.019-0.175-0.058-0.347-0.198-0.452   c-0.14-0.104-0.324-0.128-0.489-0.062c-0.106,0.044-2.612,1.126-2.894,5.5c-0.281,4.369,3.4,7.055,4.468,7.426   c0.054,0.019,0.108,0.028,0.164,0.028c0.097,0,0.193-0.028,0.276-0.083c0.13-0.086,0.213-0.228,0.223-0.384   c0.007-0.11,0.003-0.283-0.005-0.499c-0.029-0.892-0.09-2.729,0.957-3.146h0.594v16.136c-0.4,0.29-0.742,0.801-0.999,1.506   c-0.62,1.7-0.622,4.098,0.457,5.006c0.173,0.145,0.355,0.252,0.542,0.322V92.34c0,0.276,0.224,0.5,0.5,0.5h0.8   c0.276,0,0.5-0.224,0.5-0.5V49.267c1.653,1.72,6.167,6.242,7.947,6.242c0.071,0,0.141-0.002,0.211-0.006   c0.132,4.755,0.734,9.206,1.106,11.56c1.459,9.238,1.106,12.674-0.275,20.139c-0.019,0.097-0.007,0.197,0.031,0.287   c1.284,3.008,4.121,3.894,6.692,4.012c0.035,0.272,0.072,0.53,0.114,0.775c0.026,0.154,0.122,0.287,0.26,0.359   c1.61,0.849,4.293,1.356,7.453,1.356c3.186,0,6.856-0.516,10.399-1.719c0.202-0.069,0.339-0.259,0.339-0.474   c0-8.207,0-17.363-1.667-24.841c0.045-0.272,0.068-0.505,0.068-0.692c0-1.279-0.705-4.846-1.605-7.844   c0.44-0.617,0.615-1.001,0.633-1.041c0.039-0.088,0.052-0.187,0.037-0.282c-0.219-1.37-0.871-3.233-2.066-4.886   c0.999-0.934,1.786-2.276,2.008-2.674c0.053-0.095,0.073-0.205,0.059-0.312c-0.077-0.55-0.427-2.718-1.344-3.977   c0.258,0.018,0.46,0.022,0.584,0.022c0.074,0,0.121-0.001,0.135-0.002c0.207-0.007,0.389-0.142,0.456-0.338   c0.442-1.3,0.33-2.089-0.021-2.617c2.141-0.789,4.155-1.753,4.717-2.727c1.232-2.135,3.485-8.741,4.562-12.908   c2.302-0.195,3.896-2.071,4.428-3.354C77.6,22.5,77.575,21.833,77.188,21.446z M72.437,25.698c-0.229,0-0.43,0.156-0.485,0.379   c-1.101,4.399-3.438,11.088-4.549,13.013c-0.438,0.758-2.438,1.669-4.727,2.474c-0.067-0.038-0.134-0.073-0.201-0.108   c-0.14-0.072-0.374-0.192-0.405-0.265c0-0.321,0.14-0.611,0.288-0.917c0.225-0.464,0.563-1.165-0.072-1.801   c-0.264-0.263-0.642-0.444-1.008-0.619c-0.371-0.177-0.832-0.397-0.899-0.61c2.485-0.42,4.682-0.644,4.716-0.647   c0.192-0.02,0.356-0.148,0.421-0.33c0.024-0.068,2.456-6.862,4.776-10.881c1.095-1.895,3.264-3.014,4.929-3.282   c0.853-0.137,1.214,0.004,1.256,0.041c0.047,0.079,0.053,0.511-0.344,1.21C75.519,24.437,74.184,25.698,72.437,25.698z    M62.731,44.268c-0.771-0.032-2.646-0.224-3.841-1.3c-0.062-0.057-0.005-0.38,0.037-0.616c0.242-1.363,0.22-2.915-3.13-4.068   c-1.265-0.436-0.744-3.7-0.549-4.928l0.058-0.372c0.203-1.368,0.136-3.107,0.1-3.452c-0.016-0.147-0.095-0.28-0.218-0.362   c-0.355-0.239-0.679-0.469-0.974-0.686c0.666-0.293,1.241-0.585,1.629-0.793c0.364,0.492,0.538,1.08,0.708,1.657   c0.099,0.334,0.191,0.649,0.32,0.926c0.177,0.377,0.196,0.922,0.216,1.45c0.028,0.776,0.059,1.579,0.58,2.1   c0.168,0.168,0.413,0.358,0.685,0.564c1.105,0.842,1.604,1.376,1.268,1.961c-0.245,0.423-0.312,0.823-0.198,1.188   c0.195,0.631,0.848,0.942,1.424,1.217c0.29,0.138,0.59,0.282,0.731,0.423c0.103,0.103,0.133,0.133-0.121,0.658   c-0.173,0.357-0.388,0.803-0.388,1.353c0,0.666,0.547,0.948,0.947,1.154C62.599,42.646,63.109,42.908,62.731,44.268z    M59.684,52.157c-0.662-0.125-1.477-0.644-0.903-3.698c0.216-1.149,0.495-1.963,0.853-2.491c0.302-0.444,0.634-0.653,1.055-0.653   c0.088,0,0.18,0.009,0.276,0.027c0.837,0.157,1.518,2.295,1.762,3.859C61.929,50.57,60.492,52.307,59.684,52.157z M57.736,62.046   c-3.909-0.604-6.452-1.989-8.031-3.249c-0.071-2.128-0.126-4.292-0.175-6.347c0.711,0.478,1.567,0.758,2.486,0.758   c2.464,0,4.468-2.004,4.468-4.467c0-2.463-2.004-4.467-4.468-4.467c-1.003,0-1.93,0.333-2.677,0.893   c-0.062-1.738-0.134-3.03-0.237-3.677c-0.173-1.088-0.531-1.866-0.94-2.422c0.071-0.017,0.141-0.036,0.212-0.06   c0.672,0.541,1.91,1.776,3.232,4.288c0.023,0.044,0.054,0.085,0.089,0.121c0.453,0.453,3.877,1.28,6.795,0.518   c0.356,0.275,0.744,0.495,1.139,0.669c-0.285,0.169-0.565,0.426-0.822,0.805c-0.437,0.643-0.767,1.582-1.008,2.868   c-0.204,1.086-0.824,4.39,1.7,4.865c0.095,0.018,0.189,0.026,0.284,0.026c0.371,0,0.742-0.131,1.099-0.342   c1.036,1.438,1.62,3.051,1.843,4.277C62.44,57.622,61.164,59.695,57.736,62.046z M32.298,48.133   c0.403-0.507,0.702-1.17,0.871-1.837c0.422,0.231,0.855,0.462,1.289,0.693c2.163,1.152,4.4,2.343,5.045,3.538   c0.109,0.201,0.345,0.302,0.562,0.248c0.223-0.056,0.378-0.256,0.378-0.485c0-3.033,1.396-8.713,4.733-9.562   c0.101,1.571,0.295,6.194-0.676,8.963c-1.058,3.017-2.761,4.818-4.558,4.818C38.81,54.509,34.795,50.785,32.298,48.133z    M30.137,43.95c0.25-0.685,0.596-1.128,0.882-1.128c1.182,0,1.31,1.587,1.31,2.27c0,1.156-0.656,2.555-1.351,2.878   c-0.159,0.074-0.381,0.13-0.679-0.122C29.687,47.333,29.606,45.403,30.137,43.95z M45.891,37.252   c0.224-0.334,0.502-0.75,0.502-1.527c0-0.483,0.146-0.798,0.303-1.132c0.248-0.532,0.529-1.135,0.015-2.124   c-0.456-0.878-0.564-2.206-0.236-2.898c0.025-0.054,0.052-0.099,0.079-0.14c0.005,0,0.009,0,0.014,0   c0.115,0,0.23-0.005,0.345-0.013c0.079,0.095,0.192,0.161,0.321,0.177c0.048,0.006,0.66,0.084,1.545,0.084   c0.282,0,0.592-0.008,0.921-0.029c-0.306,0.512-0.715,1.052-1.259,1.559c-0.102,0.095-0.159,0.228-0.159,0.366   c0,0.528,0.218,0.989,0.41,1.395c0.249,0.527,0.345,0.781,0.214,1.009c-0.278,0.482-0.189,1.078-0.096,1.708   c0.119,0.796,0.23,1.548-0.304,2.083c-0.427,0.428-0.905,0.399-1.653,0.32c-0.235-0.025-0.481-0.052-0.729-0.052   c-0.197,0-0.396,0.017-0.591,0.064C45.584,37.71,45.729,37.492,45.891,37.252z M46.655,25.52c-0.139,1.015-0.102,2.046,0.017,2.91   c-1.412,0.042-2.492-0.764-3.203-1.547c-1.312-1.445-1.996-3.484-1.979-4.914C43.264,24.489,45.349,25.28,46.655,25.52z    M55.515,26.733c-0.719,0.39-2.442,1.27-4.017,1.65c-1.522,0.367-3.088,0.307-3.776,0.255c-0.202-1.293-0.649-5.718,2.562-6.493   C53.465,21.379,55.091,25.462,55.515,26.733z M58.507,23.254c-0.275,1.021-0.869,2.23-2.145,2.837   c-0.288-0.823-0.724-1.758-1.31-2.597c1.053-0.81,2.546-2.466,2.975-5.516C58.694,19.243,59.016,21.37,58.507,23.254z    M55.483,48.74c0,1.912-1.556,3.467-3.468,3.467c-1.911,0-3.467-1.555-3.467-3.467c0-1.912,1.556-3.467,3.467-3.467   C53.928,45.273,55.483,46.828,55.483,48.74z M57.496,40.305c0.152,0.24,0.325,0.527,0.494,0.841   c0.074,0.354,0.013,0.701-0.046,1.032c-0.051,0.284-0.105,0.589-0.065,0.877c-2.434,0.524-5.024-0.139-5.443-0.33   c-1.229-2.308-2.401-3.602-3.185-4.289c0.581-0.609,0.682-1.347,0.646-2.026c0.601,0.391,1.314,0.615,2.068,0.615   c0.133,0,0.267-0.007,0.401-0.021c0.594-0.062,1.142-0.259,1.617-0.557c0.058,1.263,0.417,2.414,1.489,2.783   C56.492,39.581,57.119,39.943,57.496,40.305z M54.428,29.863c0.029,0.568,0.048,1.91-0.109,2.976l-0.057,0.36   c-0.083,0.52-0.193,1.21-0.25,1.938c-0.445,0.475-1.054,0.799-1.75,0.873c-1.023,0.103-1.97-0.35-2.542-1.112   c-0.01-0.18,0-0.333,0.05-0.419c0.406-0.705,0.083-1.388-0.177-1.936c-0.127-0.269-0.249-0.526-0.295-0.772   c0.761-0.752,1.271-1.55,1.612-2.252c0.272-0.043,0.547-0.097,0.823-0.163c0.467-0.113,0.942-0.264,1.401-0.432   C53.508,29.211,53.938,29.527,54.428,29.863z M48.769,91.861c-0.017-0.114-0.034-0.23-0.05-0.35   c2.161-0.055,3.932-0.56,4.096-0.608c0.235-0.069,0.386-0.298,0.355-0.542c-0.016-0.124-1.544-12.4-2.645-19.557   c-0.071-0.46-0.136-0.969-0.197-1.519c1.362,2.151,2.695,3.95,7.708,8.962c0.098,0.098,0.226,0.146,0.354,0.146   s0.256-0.049,0.354-0.146c2.524-2.523,4.37-6.334,5.284-9.083c1.226,6.865,1.246,14.934,1.246,22.274   C58.812,93.543,51.822,93.308,48.769,91.861z M63.674,66.267c0,1.358-1.872,7.239-5.29,10.914   c-5.254-5.279-6.197-6.796-7.738-9.273c-0.165-0.266-0.337-0.543-0.522-0.836c-0.094-1.212-0.174-2.538-0.243-3.931   c0.07-1.074,0.168-1.998,0.28-2.785c1.726,1.124,4.192,2.207,7.622,2.709c0.024,0.003,0.048,0.005,0.072,0.005   c0.1,0,0.196-0.029,0.279-0.085c1.988-1.342,3.312-2.606,4.168-3.592C63.074,62.13,63.674,65.191,63.674,66.267z"/></g></svg>