<?xml version="1.0" standalone="no"?>
<!DOCTYPE svg PUBLIC "-//W3C//DTD SVG 20010904//EN"
 "http://www.w3.org/TR/2001/REC-SVG-20010904/DTD/svg10.dtd">
<svg version="1.0" xmlns="http://www.w3.org/2000/svg"
 width="2400.000000pt" height="2400.000000pt" viewBox="0 0 2400.000000 2400.000000"
 preserveAspectRatio="xMidYMid meet">

<g transform="translate(0.000000,2400.000000) scale(0.100000,-0.100000)"
fill="#000000" stroke="none">
<path d="M360 12000 l0 -3120 980 0 980 0 0 2465 0 2465 504 0 504 0 88 -25
c285 -82 513 -280 605 -524 47 -127 54 -170 53 -336 0 -145 -3 -169 -28 -250
-53 -173 -151 -322 -281 -428 -107 -87 -80 -81 -450 -87 l-331 -5 653 -1635
652 -1635 980 -3 c931 -2 980 -1 974 15 -4 10 -298 675 -654 1477 l-647 1460
76 50 c148 97 328 299 442 495 188 324 284 737 252 1084 -35 387 -173 692
-431 960 -322 334 -769 543 -1414 664 l-142 27 -1682 3 -1683 3 0 -3120z"/>
<path d="M5250 15113 c0 -5 596 -1407 1324 -3118 l1324 -3110 979 -3 980 -2 6
212 c4 116 8 621 8 1122 1 501 4 1111 8 1356 l6 445 647 -1565 647 -1565 980
-3 981 -2 0 2465 0 2465 825 0 825 0 0 -2465 0 -2465 980 0 980 0 0 2465 0
2465 825 0 825 0 0 -2465 0 -2465 980 0 980 0 0 1315 0 1315 660 0 660 0 0
-1315 0 -1315 980 0 980 0 0 3120 0 3120 -980 0 -980 0 0 -1150 0 -1150 -660
0 -660 0 0 1150 0 1150 -4260 0 -4260 0 -1 -1477 c0 -1123 -3 -1474 -12 -1461
-6 9 -302 673 -657 1475 l-646 1458 -982 3 -982 2 0 -1477 c0 -922 -4 -1473
-9 -1467 -6 5 -302 668 -659 1474 l-649 1465 -997 3 c-548 1 -996 -1 -996 -5z"/>
</g>
</svg>
