<svg xmlns="http://www.w3.org/2000/svg" xmlns:xlink="http://www.w3.org/1999/xlink" version="1.1" x="0px" y="0px" viewBox="0 0 100 125" enable-background="new 0 0 100 100" xml:space="preserve"><circle fill="#000000" cx="55.535" cy="30.386" r="6.852"/><circle fill="#000000" cx="40.39" cy="6.497" r="2.638"/><path fill="#000000" d="M77.786,31.994l-1.44-2.01c0.012-0.016,0.018-0.034,0.028-0.048c-0.027-0.004-0.049-0.008-0.057-0.009  c-0.005,0-0.009,0-0.012,0l-3.53-4.936l-1.322-1.94c-1.055-1.535-0.112-4.603-0.082-4.727c0.592-2.127,0.138-4.508-1.248-6.551  c-1.257-1.844-3.126-3.127-5.125-3.521c-1.564-0.298-3.102,0-4.313,0.823c-0.942,0.638-1.657,1.563-2.074,2.681  c-0.006,0.015-0.274,1.005-0.274,1.005c-0.382,2.019,0.121,4.219,1.373,6.078c1.267,1.863,3.122,3.141,5.127,3.52l0.473,0.076  c0.042-0.01,1.793,0.091,3.113,0.741l7.343,10.263c0.225,0.313,0.567,0.492,0.924,0.516c0.278,0.02,0.564-0.054,0.811-0.229  C78.056,33.329,78.186,32.553,77.786,31.994z M65.204,20.384c-1.473-0.279-2.869-1.252-3.814-2.678  c-0.964-1.417-1.354-3.07-1.073-4.542l0.199-0.713c0.268-0.722,0.701-1.297,1.307-1.708c1.951-1.319,4.924-0.346,6.636,2.171  c1.696,2.51,1.503,5.64-0.448,6.958C67.227,20.402,66.254,20.577,65.204,20.384z"/><path fill="#000000" d="M79.168,32.888c-1.355-1.056-3.305-0.813-4.36,0.54l-8.276,10.616l-9.665-2.461l-11.967-8.563  c-0.145-0.104-0.298-0.195-0.458-0.272l-7.935-3.826l-3.092-14.999c-0.347-1.68-1.994-2.76-3.669-2.415  c-1.681,0.347-2.762,1.99-2.415,3.669l3.401,16.503c0.196,0.948,0.822,1.75,1.693,2.17l9.078,4.377l1.088,0.778L23.907,66.531  c-0.578,0.853-0.741,1.92-0.444,2.905l7.247,24.037c0.446,1.478,1.802,2.432,3.271,2.432c0.326,0,0.658-0.047,0.987-0.147  c1.807-0.544,2.83-2.45,2.285-4.257l-6.776-22.479l7.422-10.936L40.58,59.1l-4.818,10.689c-0.452,1.004-0.394,2.164,0.158,3.117  l12.334,21.293c0.634,1.095,1.78,1.705,2.959,1.705c0.583,0,1.17-0.148,1.71-0.461c1.633-0.945,2.189-3.036,1.244-4.668  L42.711,70.999l10.875-24.126l0.141,0.101c0.314,0.224,0.668,0.389,1.042,0.484l12.197,3.105c0.253,0.065,0.512,0.097,0.767,0.097  c0.942-0.001,1.852-0.431,2.449-1.196l9.525-12.217C80.762,35.894,80.52,33.942,79.168,32.888z"/><path fill="#000000" d="M71.026,15.58l-0.345-0.516l-2.506,1.678l-1.479-2.165l2.435-1.629l-0.345-0.516l-2.439,1.633l-1.62-2.372  l1.184-0.857l-0.363-0.503l-1.172,0.847l-1.152-1.688l-0.515,0.35l1.164,1.703l-2.147,1.554l-1.838-2.689l-0.514,0.351l1.847,2.704  l-1.151,0.833l0.365,0.503l1.138-0.823l1.539,2.253l-2.188,1.465l0.345,0.516l2.194-1.468l1.479,2.165l-2.122,1.42l0.345,0.516  l2.127-1.424l0.755,1.104l0.514-0.35l-0.752-1.1l2.203-1.474l1.369,2.006l0.515-0.35l-1.368-2.001L71.026,15.58z M62.074,13.612  l2.148-1.555l1.606,2.354l-2.201,1.474L62.074,13.612z M65.456,18.562l-1.479-2.164l2.203-1.475l1.479,2.165L65.456,18.562z"/></svg>