<?xml version="1.0" standalone="no"?>
<!DOCTYPE svg PUBLIC "-//W3C//DTD SVG 20010904//EN"
 "http://www.w3.org/TR/2001/REC-SVG-20010904/DTD/svg10.dtd">
<svg version="1.0" xmlns="http://www.w3.org/2000/svg"
 width="282.000000pt" height="282.000000pt" viewBox="0 0 282.000000 282.000000"
 preserveAspectRatio="xMidYMid meet">

<g transform="translate(0.000000,282.000000) scale(0.100000,-0.100000)"
fill="#000000" stroke="none">
<path d="M0 1415 l0 -1405 1405 0 1405 0 0 1405 0 1405 -1405 0 -1405 0 0
-1405z m670 335 l0 -60 -35 0 -35 0 0 -249 c0 -250 0 -250 24 -278 21 -25 31
-28 81 -28 51 0 59 3 86 33 l29 32 0 245 0 245 -30 0 -30 0 0 60 0 60 150 0
150 0 0 -60 0 -60 -49 0 -49 0 -4 -262 c-3 -170 -8 -273 -16 -290 -22 -52 -91
-116 -143 -133 -51 -17 -163 -22 -221 -10 -62 13 -112 51 -144 107 l-29 53 -3
268 -4 267 -44 0 -44 0 0 60 0 60 180 0 180 0 0 -60z m850 0 l0 -60 -50 0 -50
0 0 -275 0 -275 43 0 c40 0 47 5 137 95 52 52 98 95 102 95 5 0 8 -72 8 -160
l0 -160 -290 0 -290 0 0 60 0 60 45 0 45 0 0 280 0 280 -45 0 -45 0 0 60 0 60
195 0 195 0 0 -60z m808 39 c124 -61 146 -217 44 -316 -24 -24 -38 -43 -31
-43 6 0 27 -12 46 -26 77 -59 101 -177 53 -264 -29 -51 -95 -105 -148 -120
-21 -5 -142 -10 -274 -10 l-238 0 0 65 0 65 45 0 45 0 0 275 0 275 -45 0 -45
0 0 60 0 60 252 0 c236 0 254 -1 296 -21z"/>
<path d="M2070 1590 l0 -100 45 0 c51 0 99 20 109 45 3 9 6 36 6 60 0 60 -40
95 -111 95 l-49 0 0 -100z"/>
<path d="M2070 1254 l0 -116 71 4 c63 3 74 7 95 31 26 30 32 85 14 131 -15 39
-66 66 -127 66 l-53 0 0 -116z"/>
</g>
</svg>
